<svg width="16" height="12" viewBox="0 0 16 12" fill="none" xmlns="http://www.w3.org/2000/svg">
<path d="M15.999 6.02051C15.9987 6.0381 15.9983 6.05569 15.9971 6.07324C15.9958 6.09094 15.9944 6.10854 15.9922 6.12598C15.9907 6.13776 15.9882 6.1494 15.9863 6.16113C15.9833 6.17989 15.9797 6.19841 15.9756 6.2168C15.9731 6.2279 15.9706 6.23897 15.9678 6.25C15.9504 6.31728 15.9257 6.38137 15.8955 6.44238C15.8796 6.47462 15.8624 6.50639 15.8428 6.53711C15.8378 6.54488 15.8333 6.55293 15.8281 6.56055C15.7931 6.61217 15.7528 6.66128 15.707 6.70703L10.707 11.707C10.3165 12.0975 9.68349 12.0975 9.29297 11.707C8.90245 11.3165 8.90245 10.6835 9.29297 10.293L12.5859 7L1 7C0.44773 6.99998 1.03181e-06 6.55227 7.15493e-08 6C6.49635e-08 5.44773 0.447729 5.00002 1 5L12.5859 5L9.29297 1.70703C8.90245 1.31651 8.90245 0.683491 9.29297 0.292969C9.68349 -0.0975434 10.3165 -0.0975443 10.707 0.292969L15.707 5.29297C15.7688 5.35477 15.8222 5.42479 15.8662 5.50098C15.8745 5.5154 15.8821 5.53018 15.8896 5.54492C15.9216 5.60726 15.9474 5.67312 15.9658 5.74219C15.9702 5.75876 15.975 5.77526 15.9785 5.79199C15.9808 5.80296 15.9824 5.8141 15.9844 5.8252C15.9875 5.84271 15.99 5.8603 15.9922 5.87793C15.9944 5.8957 15.9959 5.9136 15.9971 5.93164C15.9982 5.94758 15.9987 5.96353 15.999 5.97949C15.9992 5.98632 16 5.99314 16 6C16 6.00686 15.9992 6.01368 15.999 6.02051Z" fill="black"/>
</svg>
