<svg width="24" height="24" viewBox="0 0 24 24" fill="none" xmlns="http://www.w3.org/2000/svg">
<path d="M4.00098 12.0205C4.00133 12.0381 4.00165 12.0557 4.00293 12.0732C4.00421 12.0909 4.00562 12.1085 4.00781 12.126C4.0093 12.1378 4.01177 12.1494 4.01367 12.1611C4.01671 12.1799 4.02035 12.1984 4.02441 12.2168C4.02687 12.2279 4.02939 12.239 4.03223 12.25C4.04956 12.3173 4.07429 12.3814 4.10449 12.4424C4.12042 12.4746 4.13761 12.5064 4.15723 12.5371C4.16219 12.5449 4.16671 12.5529 4.17188 12.5605C4.2069 12.6122 4.24722 12.6613 4.29297 12.707L9.29297 17.707C9.68349 18.0975 10.3165 18.0975 10.707 17.707C11.0975 17.3165 11.0975 16.6835 10.707 16.293L7.41406 13L19 13C19.5523 13 20 12.5523 20 12C20 11.4477 19.5523 11 19 11L7.41406 11L10.707 7.70703C11.0975 7.31651 11.0975 6.68349 10.707 6.29297C10.3165 5.90246 9.68349 5.90246 9.29297 6.29297L4.29297 11.293C4.23117 11.3548 4.17778 11.4248 4.13379 11.501C4.12546 11.5154 4.1179 11.5302 4.11035 11.5449C4.0784 11.6073 4.05257 11.6731 4.03418 11.7422C4.02976 11.7588 4.02503 11.7753 4.02148 11.792C4.01916 11.803 4.01758 11.8141 4.01563 11.8252C4.01252 11.8427 4.00998 11.8603 4.00781 11.8779C4.00565 11.8957 4.00415 11.9136 4.00293 11.9316C4.00184 11.9476 4.00131 11.9635 4.00098 11.9795C4.00084 11.9863 4 11.9931 4 12C4 12.0069 4.00084 12.0137 4.00098 12.0205Z" fill="white"/>
</svg>
