<svg width="24" height="24" viewBox="0 0 24 24" fill="none" xmlns="http://www.w3.org/2000/svg">
<path d="M4 14H22" stroke="#BF9076" stroke-width="1.5" stroke-linecap="round" stroke-linejoin="round"/>
<path d="M5 22L5.93056 21.0694C6.45933 20.5407 6.72371 20.2763 7.05684 20.126C7.38997 19.9756 7.76314 19.9523 8.50947 19.9057L11.7619 19.7024C13.3604 19.6025 14.1597 19.5525 14.863 19.2148C15.5664 18.877 16.1051 18.2844 17.1824 17.0993L20 14H16.5L14.7071 15.7929C14.5879 15.9121 14.5282 15.9718 14.4662 16.0244C14.1472 16.2954 13.7512 16.4594 13.3341 16.4934C13.2529 16.5 13.1686 16.5 13 16.5M13 16.5C13 16.0353 13 15.803 12.9616 15.6098C12.8038 14.8164 12.1836 14.1962 11.3902 14.0384C11.197 14 10.9647 14 10.5 14H9.71849C8.67345 14 8.15093 14 7.66095 14.126C7.29599 14.2198 6.94612 14.3647 6.62171 14.5564C6.18617 14.8138 5.81669 15.1833 5.07774 15.9223L2 19M13 16.5H9.5" stroke="#BF9076" stroke-width="1.5" stroke-linecap="round" stroke-linejoin="round"/>
<path d="M13.0032 1.25C13.4173 1.25013 13.7532 1.58587 13.7532 2V2.78223C13.7877 2.78516 13.822 2.78988 13.8564 2.79321C13.8824 2.79573 13.9082 2.79853 13.9341 2.80127C14.0594 2.81453 14.1839 2.83038 14.3076 2.84888C14.3291 2.8521 14.3506 2.85575 14.3721 2.85913C14.4911 2.87784 14.6092 2.89939 14.7266 2.92285C14.7537 2.92828 14.7808 2.93329 14.8079 2.93896C14.922 2.96291 15.0353 2.98899 15.1477 3.01733C15.1729 3.02368 15.1981 3.02981 15.2231 3.03638C15.3414 3.06731 15.4585 3.10102 15.5747 3.13672C15.5906 3.1416 15.6065 3.1464 15.6223 3.15137C15.7415 3.18871 15.8592 3.22924 15.9761 3.27148C15.9937 3.27784 16.0113 3.28406 16.0288 3.29053C19.3696 4.5222 21.7527 7.73172 21.7527 11.5002C21.7526 11.7859 21.5923 12.0335 21.3572 12.1602C21.2508 12.218 21.1293 12.2517 20.9998 12.2517H5C4.58587 12.2517 4.25013 11.9158 4.25 11.5017C4.25 10.3673 4.4679 9.28406 4.86084 8.28931C4.86777 8.27176 4.87431 8.25406 4.88135 8.23657C4.92629 8.12494 4.97409 8.01481 5.02344 7.90552C5.03081 7.88918 5.03794 7.87273 5.04541 7.85645C5.09309 7.75256 5.14251 7.64974 5.19409 7.5481C5.20204 7.53241 5.21022 7.51685 5.21826 7.50122C5.27056 7.39969 5.32475 7.29937 5.38086 7.2002C5.39362 7.17762 5.40672 7.15526 5.41968 7.13281C5.47782 7.03214 5.53786 6.93281 5.59985 6.83472C5.60459 6.82721 5.60901 6.8195 5.61377 6.81201C5.75138 6.59573 5.8977 6.38569 6.05322 6.18286C6.06674 6.16522 6.08132 6.1484 6.09497 6.13086C6.16172 6.04517 6.22876 5.95981 6.29858 5.87671C6.31549 5.85657 6.3335 5.83737 6.35059 5.81738C6.42147 5.73454 6.49277 5.65214 6.56665 5.57202C6.58209 5.55527 6.59869 5.53958 6.61426 5.52295C7.11245 4.99104 7.67565 4.52141 8.29224 4.12695C8.33974 4.09655 8.38694 4.06564 8.43506 4.03613C8.50118 3.99561 8.56848 3.95701 8.63574 3.91821C8.68309 3.89089 8.72993 3.86264 8.77783 3.83618C8.85378 3.79426 8.93124 3.75504 9.00854 3.71533C9.05465 3.69163 9.1004 3.66719 9.14697 3.64429C9.21201 3.61233 9.27805 3.58238 9.34399 3.552C9.40914 3.52197 9.47429 3.49185 9.54028 3.46338C9.59412 3.44017 9.64849 3.41815 9.70288 3.396C9.7777 3.3655 9.85264 3.33511 9.92847 3.30664C9.98619 3.28499 10.0445 3.26484 10.1028 3.24438C10.1735 3.21955 10.2444 3.19494 10.3159 3.17188C10.3783 3.15178 10.4411 3.13274 10.5042 3.11401C10.5766 3.09247 10.6492 3.07146 10.7224 3.05176C10.7848 3.03497 10.8477 3.01958 10.9106 3.00415C10.9869 2.98544 11.0636 2.96812 11.1406 2.95142C11.1988 2.93882 11.2571 2.92623 11.3157 2.91479C11.4036 2.89762 11.492 2.88244 11.5808 2.86792C11.6276 2.86028 11.6744 2.85211 11.7214 2.84521C11.8241 2.83014 11.9274 2.81714 12.0312 2.80566C12.0795 2.80035 12.1278 2.79481 12.1763 2.79028C12.2019 2.78788 12.2275 2.78441 12.2532 2.78223V2C12.2532 1.58579 12.589 1.25 13.0032 1.25Z" fill="#BF9076" fill-opacity="0.4"/>
</svg>
