<svg width="44" height="44" viewBox="0 0 44 44" fill="none" xmlns="http://www.w3.org/2000/svg">
<path opacity="0.4" d="M11 7.33317V18.3332C11 20.3582 12.6416 21.9998 14.6667 21.9998H36.6667C38.6917 21.9998 40.3333 20.3582 40.3333 18.3332V7.33317C40.3333 5.30813 38.6917 3.6665 36.6667 3.6665H14.6667C12.6416 3.6665 11 5.30813 11 7.33317Z" fill="#BF9076"/>
<path fill-rule="evenodd" clip-rule="evenodd" d="M31.9495 15.3696C32.5739 15.8019 32.7296 16.6584 32.2974 17.2828L23.2647 28.4966L21.0037 26.9313L30.0363 15.7175C30.4686 15.0931 31.3251 14.9374 31.9495 15.3696Z" fill="#BF9076"/>
<circle cx="9.16667" cy="16.5002" r="3.66667" fill="#BF9076"/>
<path d="M14.6667 27.5V28.4167L20.6119 25.3001C21.8749 24.4963 23.5521 24.8923 24.3223 26.176C25.0688 27.42 24.6811 29.0327 23.4509 29.8016L16.0679 33.7284C15.6264 34.0044 15.1496 34.1747 14.6667 34.2466V38.5C14.6667 39.5125 13.8459 40.3333 12.8334 40.3333H5.50008C4.48756 40.3333 3.66675 39.5125 3.66675 38.5V27.5C3.66675 24.4624 6.12918 22 9.16675 22C12.2043 22 14.6667 24.4624 14.6667 27.5Z" fill="#BF9076"/>
<path fill-rule="evenodd" clip-rule="evenodd" d="M16.9583 11C16.9583 10.2406 17.5739 9.625 18.3333 9.625L32.9999 9.625C33.7593 9.625 34.3749 10.2406 34.3749 11C34.3749 11.7594 33.7593 12.375 32.9999 12.375L18.3333 12.375C17.5739 12.375 16.9583 11.7594 16.9583 11Z" fill="#BF9076"/>
<path fill-rule="evenodd" clip-rule="evenodd" d="M16.9583 16.5C16.9583 15.7406 17.5739 15.125 18.3333 15.125L25.6666 15.125C26.426 15.125 27.0416 15.7406 27.0416 16.5C27.0416 17.2594 26.426 17.875 25.6666 17.875L18.3333 17.875C17.5739 17.875 16.9583 17.2594 16.9583 16.5Z" fill="#BF9076"/>
</svg>
