<svg width="24" height="24" viewBox="0 0 24 24" fill="none" xmlns="http://www.w3.org/2000/svg">
<path opacity="0.4" d="M14.1465 14.9688C14.3757 16.1072 14.498 17.2845 14.498 18.4902C14.498 19.4373 14.423 20.367 14.2803 21.2734C13.6262 21.4201 12.9464 21.5 12.248 21.5C10.4345 21.5 8.74416 20.976 7.31641 20.0742C9.12185 17.7661 11.4722 15.9885 14.1465 14.9688ZM19.3955 14C20.043 14 20.681 14.043 21.3076 14.125C20.6899 17.1255 18.6192 19.5953 15.8633 20.7666C15.9512 20.0197 15.998 19.2601 15.998 18.4902C15.998 17.123 15.8532 15.7896 15.582 14.5029C16.8045 14.1747 18.0818 14 19.3955 14ZM7.46094 4.33301C9.2896 5.7225 10.8401 7.45558 12.0166 9.43652C10.1983 10.1225 8.22314 10.5 6.15723 10.5C5.15341 10.5 4.17154 10.4099 3.21875 10.2402C3.77263 7.74069 5.33585 5.62073 7.46094 4.33301ZM12.248 3C14.5458 3 16.6461 3.8398 18.2637 5.22656C16.8967 6.70909 15.2506 7.93952 13.4053 8.83789C12.2442 6.83783 10.7334 5.06605 8.95703 3.60449C9.97969 3.21498 11.0886 3 12.248 3Z" fill="#BF9076"/>
<path d="M12.7344 10.7686C13.1571 11.6423 13.5115 12.555 13.7881 13.501C10.7656 14.6146 8.12474 16.6026 6.11914 19.1748C4.20676 17.4802 3 15.0071 3 12.251C3 12.0756 3.00502 11.9014 3.01465 11.7285C4.03588 11.907 5.08667 12.001 6.15918 12.001C8.48124 12.001 10.6994 11.5624 12.7344 10.7686ZM19.3232 6.29297C20.6805 7.90264 21.5 9.98063 21.5 12.251C21.5 12.3802 21.4955 12.5088 21.4902 12.6367C20.8039 12.5476 20.1055 12.501 19.3975 12.501C17.9553 12.501 16.5556 12.6918 15.2178 13.0488C14.9243 12.0518 14.5518 11.0888 14.1084 10.166C16.0841 9.1974 17.85 7.87882 19.3232 6.29297Z" fill="#BF9076"/>
</svg>
