<svg width="44" height="44" viewBox="0 0 44 44" fill="none" xmlns="http://www.w3.org/2000/svg">
<g opacity="0.4">
<path d="M4.57465 19.6325C3.16319 18.0264 3.43197 15.5565 5.15587 14.2914L17.7088 5.07907C20.2785 3.19326 23.776 3.19517 26.3436 5.08378L38.8499 14.2829C40.5585 15.5397 40.8366 17.9838 39.4538 19.5919L38.5972 20.5882C37.7449 21.5794 37.2762 22.8431 37.2762 24.1501V33.0463C37.2762 37.0705 34.0126 40.3327 29.9866 40.3327H14.0692C10.0433 40.3327 6.7796 37.0705 6.7796 33.0463V24.2007C6.7796 22.8734 6.29625 21.5913 5.41981 20.5941L4.57465 19.6325Z" fill="#BF9076"/>
</g>
<circle cx="22" cy="29.334" r="5.5" fill="#BF9076"/>
</svg>
