<svg width="24" height="24" viewBox="0 0 24 24" fill="none" xmlns="http://www.w3.org/2000/svg">
<path d="M19.6122 7.48438C20.0262 7.48463 20.3622 7.82032 20.3622 8.23438V15.054C21.0017 16.2763 21.3982 17.0847 21.7025 18.084L21.8336 18.5454L21.8468 18.6069C21.8938 18.8768 21.9183 19.1918 21.8153 19.5034C21.717 19.8008 21.5325 20.0103 21.3334 20.1648L21.247 20.2278C20.9486 20.4337 20.6197 20.4863 20.3637 20.4863H18.8453C18.6361 20.4863 18.371 20.4515 18.1144 20.3171L18.0045 20.2527C17.7521 20.0886 17.5169 19.8555 17.4039 19.5034C17.3028 19.1881 17.3328 18.8706 17.3768 18.6106C17.3811 18.5852 17.3861 18.5599 17.393 18.5352C17.7543 17.2345 18.1183 16.4173 18.8622 15.0459V8.23438C18.8622 7.82016 19.198 7.48438 19.6122 7.48438Z" fill="#BF9076" fill-opacity="0.4"/>
<path fill-rule="evenodd" clip-rule="evenodd" d="M11.2778 3.74805C11.1376 3.74811 10.8777 3.78567 10.4912 3.88428C10.1177 3.97957 9.66932 4.12029 9.17065 4.29736C8.17381 4.65134 7.00879 5.13993 5.89893 5.67139C4.78571 6.20445 3.7507 6.76997 3.00439 7.27319C2.62861 7.52658 2.35155 7.74764 2.17676 7.92505C2.15034 7.95186 2.12836 7.97671 2.10938 7.99829C2.12846 8.02001 2.15011 8.04522 2.17676 8.07227C2.35153 8.24967 2.62858 8.47071 3.00439 8.72412C3.75068 9.22733 4.78574 9.79287 5.89893 10.3259C7.00879 10.8574 8.1738 11.346 9.17065 11.7C9.66931 11.877 10.1177 12.0177 10.4912 12.113C10.8777 12.2116 11.1376 12.2492 11.2778 12.2493C11.418 12.2493 11.6784 12.2117 12.0652 12.113C12.4387 12.0177 12.8871 11.877 13.3857 11.7C14.3826 11.346 15.5476 10.8574 16.6575 10.3259C17.7707 9.79287 18.8057 9.22733 19.552 8.72412C19.9278 8.4707 20.2056 8.24968 20.3804 8.07227C20.4067 8.04552 20.4274 8.01982 20.4463 7.99829C20.4274 7.97686 20.4065 7.95162 20.3804 7.92505C20.2056 7.74762 19.9279 7.52665 19.552 7.27319C18.8057 6.76997 17.7707 6.20445 16.6575 5.67139C15.5476 5.13993 14.3826 4.65134 13.3857 4.29736C12.8871 4.12029 12.4387 3.97957 12.0652 3.88428C11.6784 3.78559 11.418 3.74805 11.2778 3.74805Z" fill="#BF9076"/>
<path fill-rule="evenodd" clip-rule="evenodd" d="M7.26367 16.6411C7.32162 16.9097 7.44189 17.0954 7.58154 17.1956L7.76538 17.3201C8.70489 17.9252 9.96826 18.2502 11.2722 18.2502C12.6632 18.2502 14.0081 17.8807 14.9629 17.1956C15.1025 17.0954 15.2221 16.9097 15.28 16.6411L16.2454 12.1653C15.4313 12.5257 14.62 12.8532 13.8862 13.1138C13.36 13.3006 12.8658 13.4564 12.4346 13.5664C12.0166 13.673 11.6093 13.7495 11.2766 13.7495C10.944 13.7495 10.5372 13.673 10.1194 13.5664C9.68815 13.4564 9.19393 13.3006 8.66772 13.1138C7.93048 12.852 7.11483 12.5227 6.29688 12.1602L7.26367 16.6411Z" fill="#BF9076" fill-opacity="0.4"/>
</svg>
