<svg width="72" height="72" viewBox="0 0 72 72" fill="none" xmlns="http://www.w3.org/2000/svg">
<g clip-path="url(#clip0_3302_59954)">
<path d="M7.55442 36.608C7.33368 38.2851 6.20549 39.2612 4.52546 39.2612C2.57564 39.2612 1.30029 37.9346 1.30029 35.9197C1.30029 33.8297 2.58791 32.453 4.54999 32.453C6.24228 32.453 7.37047 33.3916 7.51763 34.8935H5.81307C5.69044 34.1801 5.23671 33.7796 4.56225 33.7796C3.618 33.7796 3.0539 34.5555 3.0539 35.8822C3.0539 37.1712 3.59347 37.9096 4.52546 37.9096C5.2735 37.9096 5.7395 37.4591 5.87439 36.608H7.55442Z" fill="black"/>
<path d="M20.1465 35.5231L26.278 31.9473V39.0988L20.1465 35.5231Z" fill="black"/>
<path d="M35.0372 56.9773C46.6474 56.9773 56.0594 47.3718 56.0594 35.5228C56.0594 23.6738 46.6474 14.0682 35.0372 14.0682C23.4269 14.0682 14.0149 23.6738 14.0149 35.5228C14.0149 47.3718 23.4269 56.9773 35.0372 56.9773Z" stroke="black" stroke-width="2"/>
<path d="M35.0371 67.7042L39.4512 70.2229L39.3815 65.0623L35.0371 67.7042ZM35.0371 3.78756C35.3297 3.78756 35.6213 3.79168 35.9118 3.79986L35.936 2.90626C35.6374 2.89785 35.3377 2.89362 35.0371 2.89362V3.78756ZM37.6535 3.89828C38.236 3.94779 38.8138 4.01369 39.3868 4.09551L39.5082 3.2102C38.9191 3.12607 38.325 3.05832 37.7262 3.00742L37.6535 3.89828ZM41.1062 4.39161C41.6788 4.50721 42.2457 4.63885 42.8065 4.78606L43.0247 3.9203C42.448 3.76892 41.8651 3.63354 41.2763 3.51466L41.1062 4.39161ZM44.4833 5.2782C45.0391 5.45885 45.5881 5.65501 46.1299 5.86621L46.4424 5.03111C45.8853 4.81393 45.3207 4.61219 44.749 4.42641L44.4833 5.2782ZM47.7411 6.54812C48.2729 6.79132 48.7967 7.04933 49.3121 7.32162L49.7148 6.52774C49.1848 6.24776 48.6461 5.98244 48.0994 5.73236L47.7411 6.54812ZM50.8379 8.18406C51.3391 8.48644 51.8313 8.80278 52.3139 9.13253L52.8012 8.3897C52.305 8.05067 51.799 7.72543 51.2836 7.41453L50.8379 8.18406ZM53.7358 10.164C54.2006 10.5215 54.6552 10.892 55.0991 11.2749L55.6646 10.5922C55.2082 10.1985 54.7408 9.81765 54.263 9.45012L53.7358 10.164ZM56.3995 12.4618C56.8221 12.8696 57.2335 13.2895 57.6331 13.7207L58.2695 13.1065C57.8587 12.6631 57.4358 12.2316 57.0014 11.8123L56.3995 12.4618ZM58.796 15.0479C59.1713 15.5009 59.5343 15.9649 59.8846 16.4392L60.5841 15.9011C60.224 15.4135 59.8507 14.9366 59.465 14.4708L58.796 15.0479ZM60.8953 17.8903C61.2184 18.3829 61.5283 18.8852 61.8247 19.3967L62.5787 18.9418C62.274 18.4159 61.9553 17.8995 61.6231 17.393L60.8953 17.8903ZM62.6697 20.9539C62.9365 21.4799 63.1894 22.0145 63.4276 22.5572L64.227 22.1915C63.9819 21.6335 63.7219 21.0839 63.4476 20.5429L62.6697 20.9539ZM64.0958 24.2016C64.3027 24.7545 64.4949 25.3148 64.6719 25.882L65.5066 25.6108C65.3245 25.0274 65.1269 24.4511 64.9141 23.8826L64.0958 24.2016ZM65.1541 27.5933C65.2984 28.1656 65.4274 28.7441 65.5407 29.3285L66.4 29.155C66.2835 28.5541 66.1509 27.9591 66.0025 27.3706L65.1541 27.5933ZM65.8308 31.0833C65.9109 31.668 65.9756 32.2577 66.024 32.8522L66.897 32.778C66.8471 32.1669 66.7807 31.5606 66.6983 30.9594L65.8308 31.0833ZM66.1205 34.6297C66.1285 34.9262 66.1326 35.2238 66.1326 35.5224H67.0085C67.0085 35.2156 67.0044 34.9098 66.996 34.605L66.1205 34.6297ZM66.1326 35.5224C66.1326 35.821 66.1285 36.1186 66.1205 36.4151L66.996 36.4398C67.0044 36.135 67.0085 35.8292 67.0085 35.5224H66.1326ZM66.024 38.1926C65.9756 38.7871 65.9109 39.3768 65.8308 39.9615L66.6983 40.0854C66.7807 39.4843 66.8471 38.8779 66.897 38.2668L66.024 38.1926ZM65.5407 41.7163C65.4274 42.3007 65.2984 42.8793 65.1541 43.4516L66.0025 43.6742C66.1509 43.0857 66.2835 42.4907 66.4 41.8898L65.5407 41.7163ZM64.6719 45.1628C64.4949 45.73 64.3027 46.2904 64.0958 46.8433L64.9141 47.1622C65.1269 46.5937 65.3245 46.0174 65.5066 45.434L64.6719 45.1628ZM63.4276 48.4877C63.1894 49.0303 62.9365 49.5649 62.6697 50.0909L63.4476 50.5019C63.7219 49.961 63.9819 49.4113 64.227 48.8533L63.4276 48.4877ZM61.8247 51.6481C61.5283 52.1596 61.2184 52.6619 60.8953 53.1545L61.6231 53.6518C61.9553 53.1453 62.274 52.6289 62.5787 52.103L61.8247 51.6481ZM59.8846 54.6056C59.5343 55.0799 59.1713 55.5439 58.796 55.9969L59.465 56.5741C59.8507 56.1082 60.224 55.6313 60.5841 55.1437L59.8846 54.6056ZM57.6331 57.3241C57.2335 57.7554 56.8221 58.1752 56.3995 58.583L57.0014 59.2325C57.4358 58.8133 57.8586 58.3817 58.2695 57.9384L57.6331 57.3241ZM55.0991 59.7699C54.6552 60.1528 54.2006 60.5233 53.7358 60.8809L54.263 61.5947C54.7408 61.2272 55.2082 60.8463 55.6646 60.4526L55.0991 59.7699ZM52.3139 61.9123C51.8313 62.2421 51.3391 62.5583 50.8379 62.8608L51.2836 63.6303C51.799 63.3194 52.305 62.9941 52.8012 62.6551L52.3139 61.9123ZM49.3121 63.7232C48.7967 63.9954 48.2728 64.2535 47.7411 64.4967L48.0994 65.3125C48.6461 65.0624 49.1847 64.797 49.7148 64.5171L49.3121 63.7232ZM46.1299 65.1786C45.5881 65.3898 45.0391 65.5859 44.4833 65.7666L44.749 66.6184C45.3207 66.4326 45.8853 66.2309 46.4424 66.0137L46.1299 65.1786ZM42.8065 66.2587C42.2457 66.406 41.6788 66.5376 41.1062 66.6532L41.2763 67.5302C41.865 67.4113 42.448 67.2759 43.0247 67.1245L42.8065 66.2587ZM39.3868 66.9493C38.8138 67.0311 38.236 67.0971 37.6535 67.1465L37.7262 68.0374C38.325 67.9865 38.9191 67.9188 39.5082 67.8346L39.3868 66.9493Z" fill="black"/>
<path d="M71.8263 21.2193C71.8263 16.776 68.2968 13.1739 63.9429 13.1739C59.5891 13.1739 56.0596 16.776 56.0596 21.2193C56.0596 25.6627 59.5891 29.2648 63.9429 29.2648C68.2968 29.2648 71.8263 25.6627 71.8263 21.2193Z" fill="black"/>
<path d="M64.1446 23.3757C64.6749 23.3235 65.1935 23.0533 65.5306 22.6603C66.0325 22.0753 66.192 21.2722 65.955 20.5452C65.8399 20.1922 65.6148 19.8451 65.3545 19.6124C64.7813 19.1003 63.9944 18.9375 63.2821 19.1793C62.9361 19.2968 62.596 19.5265 62.368 19.7922C61.8662 20.3772 61.7067 21.1803 61.9436 21.9073C62.0587 22.2603 62.2838 22.6074 62.5442 22.8401C62.9873 23.2361 63.5786 23.4315 64.1446 23.3757Z" fill="black" stroke="black"/>
</g>
<defs>
<clipPath id="clip0_3302_59954">
<rect width="71.8261" height="68.8333" fill="white" transform="translate(0 2.00006)"/>
</clipPath>
</defs>
</svg>
