<svg width="28" height="28" viewBox="0 0 28 28" fill="none" xmlns="http://www.w3.org/2000/svg">
<g opacity="0.5">
<path fill-rule="evenodd" clip-rule="evenodd" d="M16.333 25.6663H11.6663C7.26657 25.6663 5.06668 25.6663 3.69984 24.2995C2.33301 22.9327 2.33301 20.7328 2.33301 16.333V11.6663C2.33301 7.26657 2.33301 5.06668 3.69984 3.69984C5.06668 2.33301 7.27815 2.33301 11.7011 2.33301C12.4081 2.33301 12.9746 2.33301 13.4513 2.35245C13.4357 2.4457 13.4274 2.54082 13.4271 2.637L13.4163 5.9438C13.4162 7.22376 13.4161 8.35492 13.5387 9.26669C13.6716 10.255 13.9767 11.2431 14.7832 12.0496C15.5897 12.8561 16.5778 13.1612 17.5661 13.2941C18.4779 13.4167 19.6091 13.4166 20.889 13.4165L20.9997 13.4165H25.6167C25.6663 14.0398 25.6663 14.8048 25.6663 15.8231V16.333C25.6663 20.7328 25.6663 22.9327 24.2995 24.2995C22.9327 25.6663 20.7328 25.6663 16.333 25.6663Z" fill="white" fill-opacity="0.5"/>
</g>
<path d="M7 16.042C6.51675 16.042 6.125 16.4337 6.125 16.917C6.125 17.4002 6.51675 17.792 7 17.792H16.3333C16.8166 17.792 17.2083 17.4002 17.2083 16.917C17.2083 16.4337 16.8166 16.042 16.3333 16.042H7Z" fill="white"/>
<path d="M7 20.1253C6.51675 20.1253 6.125 20.5171 6.125 21.0003C6.125 21.4836 6.51675 21.8753 7 21.8753H13.4167C13.8999 21.8753 14.2917 21.4836 14.2917 21.0003C14.2917 20.5171 13.8999 20.1253 13.4167 20.1253H7Z" fill="white"/>
<path d="M13.4278 2.63645L13.417 5.94326C13.4169 7.22321 13.4168 8.35438 13.5394 9.26615C13.6723 10.2544 13.9774 11.2426 14.7838 12.0491C15.5903 12.8556 16.5785 13.1607 17.5668 13.2935C18.4785 13.4161 19.6097 13.416 20.8896 13.4159L25.6173 13.4159C25.6318 13.5974 25.642 13.7909 25.6493 13.9991H25.667C25.667 13.6871 25.667 13.531 25.6554 13.3473C25.5895 12.3036 25.1556 11.1078 24.5371 10.2646C24.4282 10.1162 24.3537 10.0271 24.2048 9.84889C23.2802 8.7422 22.0632 7.36359 21.0003 6.41579C20.0543 5.5722 18.7588 4.64926 17.6288 3.89459C16.6581 3.24621 16.1727 2.92202 15.5071 2.68107C15.3307 2.61719 15.0979 2.54663 14.9157 2.50178C14.4677 2.3915 14.0316 2.35314 13.417 2.33984L13.4278 2.63645Z" fill="white"/>
</svg>
