<svg width="24" height="24" viewBox="0 0 24 24" fill="none" xmlns="http://www.w3.org/2000/svg">
<path opacity="0.4" d="M11.432 6.52037C9.66224 5.28027 7.17856 4.71829 5.32991 4.50939C4.41499 4.40601 3.66797 5.17002 3.66797 6.11265V15.5C3.66797 16.4426 4.41499 17.2069 5.32991 17.3103C7.17856 17.5192 9.66224 18.0811 11.432 19.3212C11.6021 19.4404 11.8017 19.5 12.0013 19.5V6.69913C11.8017 6.69913 11.6021 6.63954 11.432 6.52037Z" fill="#BF9076"/>
<path fill-rule="evenodd" clip-rule="evenodd" d="M5.55042 8.78334C5.60325 8.44223 5.9226 8.20853 6.26371 8.26136C7.34936 8.42949 8.57198 8.71052 9.72681 9.15709C10.0488 9.28159 10.2088 9.6435 10.0843 9.96545C9.95983 10.2874 9.59792 10.4475 9.27597 10.323C8.2271 9.91736 7.09639 9.65522 6.0724 9.49663C5.73129 9.4438 5.49759 9.12445 5.55042 8.78334Z" fill="#BF9076"/>
<path fill-rule="evenodd" clip-rule="evenodd" d="M5.55042 12.1173C5.60325 11.7762 5.9226 11.5425 6.26371 11.5953C6.81349 11.6805 7.39678 11.7943 7.98762 11.9434C8.32231 12.0278 8.52518 12.3676 8.44073 12.7023C8.35629 13.037 8.01652 13.2399 7.68183 13.1554C7.13317 13.017 6.58844 12.9105 6.0724 12.8306C5.73129 12.7778 5.49759 12.4584 5.55042 12.1173Z" fill="#BF9076"/>
<path d="M12.5693 6.52037C14.3391 5.28027 16.8227 4.71829 18.6714 4.50939C19.5863 4.40601 20.3333 5.17002 20.3333 6.11265V15.5C20.3333 16.4426 19.5863 17.2069 18.6714 17.3103C16.8227 17.5192 14.3391 18.0811 12.5693 19.3212C12.3992 19.4404 12.1996 19.5 12 19.5V6.69913C12.1996 6.69913 12.3992 6.63954 12.5693 6.52037Z" fill="#BF9076"/>
</svg>
