<svg width="72" height="72" viewBox="0 0 72 72" fill="none" xmlns="http://www.w3.org/2000/svg">
<g clip-path="url(#clip0_3305_61411)">
<path d="M7.55454 36.6079C7.33381 38.2849 6.20561 39.2611 4.52558 39.2611C2.57577 39.2611 1.30042 37.9345 1.30042 35.9196C1.30042 33.8295 2.58803 32.4529 4.55011 32.4529C6.2424 32.4529 7.37059 33.3915 7.51775 34.8933H5.8132C5.69057 34.18 5.23683 33.7795 4.56237 33.7795C3.61812 33.7795 3.05402 34.5554 3.05402 35.882C3.05402 37.1711 3.59359 37.9095 4.52558 37.9095C5.27362 37.9095 5.73962 37.4589 5.87451 36.6079H7.55454Z" fill="white"/>
<path d="M20.1466 35.523L26.2781 31.9473V39.0988L20.1466 35.523Z" fill="white"/>
<path d="M35.0373 56.9772C46.6476 56.9772 56.0596 47.3717 56.0596 35.5227C56.0596 23.6736 46.6476 14.0681 35.0373 14.0681C23.427 14.0681 14.015 23.6736 14.015 35.5227C14.015 47.3717 23.427 56.9772 35.0373 56.9772Z" stroke="white" stroke-width="2"/>
<path d="M35.0372 67.7042L39.4513 70.2228L39.3816 65.0622L35.0372 67.7042ZM35.0372 3.78749C35.3298 3.78749 35.6214 3.79162 35.9119 3.7998L35.9361 2.9062C35.6375 2.89779 35.3378 2.89355 35.0372 2.89355V3.78749ZM37.6536 3.89822C38.2361 3.94773 38.814 4.01363 39.3869 4.09545L39.5083 3.21013C38.9193 3.12601 38.3251 3.05826 37.7263 3.00736L37.6536 3.89822ZM41.1064 4.39155C41.679 4.50715 42.2459 4.63879 42.8066 4.786L43.0248 3.92024C42.4481 3.76886 41.8652 3.63348 41.2764 3.5146L41.1064 4.39155ZM44.4834 5.27814C45.0392 5.45879 45.5882 5.65495 46.13 5.86614L46.4425 5.03104C45.8854 4.81387 45.3208 4.61213 44.7492 4.42635L44.4834 5.27814ZM47.7413 6.54806C48.273 6.79126 48.7968 7.04926 49.3122 7.32156L49.7149 6.52768C49.185 6.2477 48.6463 5.98238 48.0995 5.73229L47.7413 6.54806ZM50.838 8.184C51.3392 8.48638 51.8314 8.80272 52.314 9.13247L52.8013 8.38964C52.3051 8.05061 51.7991 7.72537 51.2838 7.41447L50.838 8.184ZM53.7359 10.1639C54.2007 10.5214 54.6553 10.8919 55.0992 11.2749L55.6647 10.5922C55.2083 10.1985 54.741 9.81759 54.2631 9.45005L53.7359 10.1639ZM56.3996 12.4617C56.8223 12.8696 57.2336 13.2894 57.6332 13.7207L58.2696 13.1065C57.8588 12.6631 57.4359 12.2316 57.0016 11.8122L56.3996 12.4617ZM58.7962 15.0478C59.1714 15.5009 59.5344 15.9648 59.8848 16.4391L60.5842 15.9011C60.2241 15.4134 59.8509 14.9365 59.4651 14.4707L58.7962 15.0478ZM60.8954 17.8903C61.2185 18.3828 61.5284 18.8851 61.8248 19.3967L62.5788 18.9417C62.2741 18.4158 61.9555 17.8994 61.6232 17.393L60.8954 17.8903ZM62.6698 20.9538C62.9366 21.4798 63.1895 22.0145 63.4277 22.5571L64.2271 22.1915C63.982 21.6335 63.722 21.0838 63.4477 20.5429L62.6698 20.9538ZM64.0959 24.2015C64.3029 24.7544 64.495 25.3147 64.6721 25.8819L65.5067 25.6107C65.3246 25.0273 65.127 24.4511 64.9142 23.8825L64.0959 24.2015ZM65.1543 27.5932C65.2985 28.1655 65.4276 28.744 65.5408 29.3284L66.4001 29.1549C66.2836 28.5541 66.151 27.9591 66.0026 27.3705L65.1543 27.5932ZM65.8309 31.0832C65.9111 31.6679 65.9757 32.2577 66.0241 32.8521L66.8971 32.7779C66.8473 32.1669 66.7809 31.5605 66.6984 30.9593L65.8309 31.0832ZM66.1206 34.6297C66.1286 34.9262 66.1327 35.2238 66.1327 35.5223H67.0086C67.0086 35.2155 67.0045 34.9097 66.9962 34.605L66.1206 34.6297ZM66.1327 35.5223C66.1327 35.8209 66.1286 36.1185 66.1206 36.415L66.9962 36.4397C67.0045 36.135 67.0086 35.8291 67.0086 35.5223H66.1327ZM66.0241 38.1925C65.9757 38.787 65.9111 39.3767 65.8309 39.9615L66.6984 40.0854C66.7809 39.4842 66.8473 38.8778 66.8971 38.2667L66.0241 38.1925ZM65.5408 41.7163C65.4276 42.3006 65.2985 42.8792 65.1543 43.4515L66.0026 43.6742C66.151 43.0856 66.2836 42.4907 66.4001 41.8898L65.5408 41.7163ZM64.6721 45.1628C64.495 45.73 64.3029 46.2903 64.0959 46.8432L64.9142 47.1621C65.127 46.5936 65.3246 46.0174 65.5067 45.434L64.6721 45.1628ZM63.4277 48.4876C63.1895 49.0302 62.9366 49.5649 62.6698 50.0909L63.4477 50.5018C63.722 49.961 63.982 49.4112 64.2271 48.8532L63.4277 48.4876ZM61.8248 51.648C61.5284 52.1595 61.2185 52.6618 60.8954 53.1544L61.6232 53.6517C61.9555 53.1453 62.2741 52.6289 62.5788 52.1029L61.8248 51.648ZM59.8847 54.6055C59.5344 55.0799 59.1714 55.5438 58.7962 55.9969L59.4651 56.574C59.8509 56.1082 60.2241 55.6312 60.5842 55.1436L59.8847 54.6055ZM57.6332 57.324C57.2336 57.7553 56.8222 58.1751 56.3996 58.5829L57.0015 59.2325C57.4359 58.8132 57.8587 58.3816 58.2696 57.9383L57.6332 57.324ZM55.0992 59.7698C54.6553 60.1528 54.2007 60.5232 53.7359 60.8808L54.2631 61.5946C54.741 61.2271 55.2083 60.8462 55.6647 60.4525L55.0992 59.7698ZM52.314 61.9122C51.8314 62.242 51.3392 62.5583 50.838 62.8607L51.2838 63.6302C51.7991 63.3193 52.3051 62.9941 52.8013 62.655L52.314 61.9122ZM49.3122 63.7231C48.7968 63.9954 48.2729 64.2535 47.7413 64.4966L48.0995 65.3124C48.6463 65.0623 49.1849 64.797 49.7149 64.517L49.3122 63.7231ZM46.13 65.1785C45.5882 65.3897 45.0392 65.5859 44.4834 65.7665L44.7492 66.6184C45.3208 66.4325 45.8854 66.2309 46.4425 66.0136L46.13 65.1785ZM42.8066 66.2587C42.2459 66.4059 41.679 66.5376 41.1064 66.6532L41.2764 67.5301C41.8651 67.4112 42.4481 67.2759 43.0248 67.1244L42.8066 66.2587ZM39.3869 66.9492C38.814 67.031 38.2361 67.097 37.6536 67.1464L37.7263 68.0373C38.3251 67.9865 38.9193 67.9187 39.5083 67.8346L39.3869 66.9492Z" fill="white"/>
<path d="M71.8264 21.2193C71.8264 16.7759 68.2969 13.1738 63.943 13.1738C59.5892 13.1738 56.0597 16.7759 56.0597 21.2193C56.0597 25.6627 59.5892 29.2647 63.943 29.2647C68.2969 29.2647 71.8264 25.6627 71.8264 21.2193Z" fill="white"/>
<path d="M64.1447 23.3757C64.675 23.3235 65.1936 23.0532 65.5308 22.6602C66.0326 22.0753 66.1921 21.2721 65.9552 20.5452C65.8401 20.1922 65.6149 19.8451 65.3546 19.6124C64.7814 19.1002 63.9945 18.9374 63.2822 19.1792C62.9363 19.2967 62.5962 19.5265 62.3681 19.7921C61.8663 20.3771 61.7068 21.1802 61.9438 21.9072C62.0589 22.2602 62.284 22.6073 62.5443 22.84C62.9874 23.236 63.5788 23.4314 64.1447 23.3757Z" fill="white" stroke="white"/>
</g>
<defs>
<clipPath id="clip0_3305_61411">
<rect width="71.8261" height="68.8333" fill="white" transform="translate(0.00012207 2)"/>
</clipPath>
</defs>
</svg>
