<?xml version="1.0" encoding="UTF-8"?>
<svg id="_Слой_1" xmlns="http://www.w3.org/2000/svg" version="1.1" viewBox="0 0 100 25.59">
  <!-- Generator: Adobe Illustrator 29.5.1, SVG Export Plug-In . SVG Version: 2.1.0 Build 141)  -->
  <g>
    <path d="M54.68,1.29l-.09-.07c-.7-.62-1.64-.95-2.67-.95h-7.12v.31h.81c.26,0,.48.22.48.48v11.71c0,.26-.22.48-.48.48h-.81v.33h5.63v-.33h-.81c-.26,0-.48-.22-.48-.48v-5.09h2.76c2.23,0,3.85-1.56,3.85-3.72,0-1.06-.39-1.99-1.1-2.67h.04,0ZM52.68,3.96c0,1.65-1.25,3.39-2.43,3.39h-1.1V.59h1.1c1.18,0,2.43,1.74,2.43,3.39v-.02Z" fill="#2c333b"/>
    <path d="M9.18,13.2h-.83v.33h5.74v-.33h-.28c-.59,0-1.14-.37-1.34-.92L7.8.32v-.07h-1.49L1.56,12.41c-.18.48-.64.77-1.14.77H0v.33h2.82v-.33h-.92s-.13-.04-.18-.09c-.04-.05-.06-.13-.04-.2l1.47-3.77h4.73l1.47,3.77s0,.15-.02.2c-.04.05-.11.09-.18.09l.04.02h0ZM3.29,8.81l2.25-5.75,2.25,5.75H3.29Z" fill="#2c333b"/>
    <path d="M99.87,13.22c-.61,0-1.18-.24-1.6-.66l-6.15-7.28,4.18-3.93c.53-.51,1.27-.79,2.01-.79h.11V.24h-2.87v.31h.75s.13.04.15.09c.02.05,0,.13-.04.16l-6.2,5.82V1.01c0-.26.22-.48.48-.48h.81V.22h-5.63v.31h.81c.26,0,.48.22.48.48v11.71c0,.26-.22.48-.48.48h-.81v.33h5.63v-.33h-.81c-.26,0-.48-.22-.48-.48v-5.01l4.31,5.14s.06.15.04.22c-.04.07-.11.11-.18.11h-.55v.33h6.18v-.33h-.11l-.02.04h-.01Z" fill="#2c333b"/>
    <path d="M39.98,5.32l-1.33,1.32,1.33,1.32,1.33-1.32-1.33-1.32Z" fill="#2c333b"/>
    <path d="M86.47,17.87l-.7-.42c-1.58-.95-2.04-1.96-2.63-4.48,0-.07-.04-.13-.06-.2-.18-.73-.4-1.3-.72-1.79-.11-.18-.24-.37-.37-.53-.4-.48-.92-.92-1.56-1.26-.09-.05-.18-.09-.29-.15-.18-.09-.39-.18-.61-.26-.4-.15-1.82-.7-2.85-1.1,2.65,0,2.95-.13,3.11-.2h.04c1.71-.48,2.69-1.76,2.69-3.51,0-2.14-1.62-3.72-3.85-3.72h-7.12v.31h.81c.26,0,.48.22.48.48v11.71c0,.26-.22.48-.48.48h-.81v.33h5.63v-.33h-.81c-.26,0-.48-.22-.48-.48v-4.98c.44.18,1.1.48,1.56.68.37.62.53,1.37.7,2.14.5,2.29,1.14,5.16,7.51,7.03l.79.24.02.02h0ZM77.03,7.34h-1.09V.59h1.09c1.18,0,2.43,1.74,2.43,3.39s-1.25,3.39-2.43,3.39v-.02h0Z" fill="#2c333b"/>
    <path d="M68.27,12.29L63.59.32v-.07h-1.49l-4.75,12.17c-.2.48-.64.77-1.14.77h-.42v.33h2.82v-.33h-.92s-.13-.04-.18-.09c-.04-.05-.06-.13-.04-.2l1.47-3.77h4.73l1.47,3.77s0,.15-.02.2c-.04.05-.11.09-.18.09h-.83v.33h5.74v-.33h-.28c-.59,0-1.14-.37-1.34-.92,0,0,.04.02.04.02ZM59.08,8.83l2.25-5.75,2.25,5.75h-4.5Z" fill="#2c333b"/>
    <path d="M23.76,4.56c0,1.3-1.05,2.34-2.36,2.34h-1.09V.59h2.23c1.53,0,2.78,1.24,2.78,2.76v.11h.33V.28l-9.57-.04h-.11v.31h.81c.26,0,.48.22.48.48v11.71c0,.26-.22.48-.48.48h-.81v.33h5.63v-.33h-.81c-.26,0-.48-.22-.48-.48v-5.53h1.09c1.31,0,2.36,1.04,2.36,2.34v.11h.31v-5.22h-.31v.11h0Z" fill="#2c333b"/>
    <path d="M34.42,13.24h-.81c-.26,0-.48-.22-.48-.48V1.05c0-.26.22-.48.48-.48h.81v-.31h-5.63v.31h.81c.26,0,.48.22.48.48v11.71c0,.26-.22.48-.48.48h-.81v.31h5.63v-.31Z" fill="#2c333b"/>
  </g>
  <path d="M25.62,22.72h-1.16v-1.1h1.91v-.31h-2.25v3.44h1.49c.31,0,.55-.09.75-.29s.31-.44.31-.73-.11-.53-.31-.71c-.2-.2-.46-.29-.75-.29h.01ZM26.14,24.25c-.15.13-.31.2-.52.2h-1.16v-1.43h1.16c.2,0,.39.07.52.2.15.13.2.31.2.51s-.07.38-.2.51h0Z" fill="#2c333b"/>
  <path d="M29.03,24.2v-2.87h-.31v3.44h.28l2.3-2.87v2.87h.33v-3.44h-.29l-2.3,2.87h-.01Z" fill="#2c333b"/>
  <path d="M35.65,22.97c.15-.07.26-.18.35-.31.07-.13.13-.27.13-.44,0-.27-.11-.49-.35-.68-.24-.18-.53-.27-.9-.27-.63,0-1.05.27-1.31.82l.31.11c.18-.42.52-.62.99-.62.28,0,.5.05.66.18s.26.27.26.46c0,.16-.06.29-.18.42-.11.11-.26.16-.42.16h-.66v.31h.68c.18,0,.35.05.5.18.13.13.2.27.2.46,0,.2-.09.38-.28.51-.18.13-.42.2-.72.2-.48,0-.83-.2-1.01-.62l-.31.11c.26.55.7.81,1.33.81.39,0,.7-.09.96-.27.26-.2.39-.44.39-.71,0-.18-.06-.35-.15-.49-.09-.15-.24-.26-.42-.35l-.04.04h-.01Z" fill="#2c333b"/>
  <path d="M40.77,22.86h-2.25v-1.54h-.33v3.44h.33v-1.59h2.25v1.59h.31v-3.44h-.31v1.54Z" fill="#2c333b"/>
  <path d="M43.57,23.17h1.9v-.31h-1.9v-1.23h2.14v-.31h-2.47v3.44h2.48v-.31h-2.15s0-1.28,0-1.28Z" fill="#2c333b"/>
  <path d="M49.2,21.6c.26,0,.5.05.7.18.22.11.39.27.52.49l.31-.13c-.15-.27-.37-.48-.63-.62-.26-.15-.57-.22-.9-.22-.52,0-.94.16-1.27.51-.33.33-.52.75-.52,1.26s.17.92.52,1.26c.33.33.75.51,1.27.51.33,0,.63-.07.88-.22.26-.15.48-.37.64-.62l-.31-.13c-.13.2-.29.37-.52.49-.22.11-.44.18-.7.18-.4,0-.75-.15-1.03-.42s-.4-.62-.4-1.04.13-.75.4-1.02c.28-.27.63-.42,1.03-.42v-.05h.01Z" fill="#2c333b"/>
  <path d="M53.89,22.9h-1.27v.29h1.27v-.29Z" fill="#2c333b"/>
  <path d="M58.75,21.33h-.33v3.13h-2.14v-3.13h-.33v3.44h3.06v.82h.33v-1.13h-.59s0-3.13,0-3.13Z" fill="#2c333b"/>
  <path d="M61.51,23.17h1.88v-.31h-1.88v-1.23h2.12v-.31h-2.45v3.44h2.48v-.31h-2.15s0-1.28,0-1.28Z" fill="#2c333b"/>
  <path d="M68.14,22.86h-2.25v-1.54h-.31v3.44h.31v-1.59h2.25v1.59h.33v-3.44h-.33v1.54Z" fill="#2c333b"/>
  <path d="M70.33,21.64h1.36v3.13h.33v-3.13h1.38v-.31h-3.07v.31Z" fill="#2c333b"/>
  <path d="M76.75,21.33h-1.49v3.44h.33v-1.37h1.18c.31,0,.57-.09.77-.29s.31-.44.31-.75-.11-.53-.31-.73c-.2-.2-.46-.29-.77-.29h-.02ZM77.29,22.88c-.15.15-.33.2-.53.2h-1.18v-1.46h1.18c.2,0,.39.07.53.22.15.15.22.31.22.51s-.07.38-.22.53Z" fill="#2c333b"/>
  <path d="M93.56,23.1h-8.83v.29h8.83v-.29Z" fill="#2c333b"/>
  <path d="M17.26,23.1h-8.83v.29h8.83v-.29Z" fill="#2c333b"/>
</svg>