<svg width="594" height="155" viewBox="0 0 594 155" fill="none" xmlns="http://www.w3.org/2000/svg">
<path d="M237.055 43.2846L229.998 36.414L237.055 29.5434L244.113 36.414L237.055 43.2846ZM509.109 99.9564C499.22 94.2934 496.576 87.9433 493.203 73.5151C493.015 73.1611 493.015 72.6615 492.849 72.3075C491.974 68.7057 490.725 65.2704 488.789 62.0017C488.081 60.9607 487.373 59.9405 486.665 59.0869C484.188 56.1721 481.023 53.757 477.484 51.8832C476.942 51.5293 476.422 51.3627 475.714 51.0296C474.486 50.5091 473.424 49.9886 472.175 49.4889C468.281 48.1148 449.21 40.9111 448.856 40.7237L448.503 41.5774C448.69 41.5774 456.268 44.8461 460.516 46.7199C469.531 61.3146 458.579 85.3616 509.088 99.9564H509.109ZM81.614 75.4097C77.9081 75.4097 74.3687 73.182 72.953 69.7467L45.2208 0.0208199H37.455L9.18158 70.4129C7.95321 73.3277 5.1217 75.2223 1.76969 75.2223H0V75.9094H15.5525V75.2223H10.7847C9.36896 75.2223 8.49452 73.8482 9.01502 72.6407L18.03 50.3217H47.0114L56.0264 72.6407C56.5469 73.8482 55.5059 75.2223 54.2567 75.2223H49.8429V75.9094H82.6967V75.2223H81.6349V75.3889L81.614 75.4097ZM46.6366 49.822H18.03L32.3333 14.0951L46.6366 49.8012V49.822ZM95.0429 0.0208199V0.707877H99.2901C101.226 0.707877 102.83 2.24855 102.83 4.14316V72.141C102.83 74.0356 101.247 75.5763 99.2901 75.5763H95.0429V76.2633H127.376V75.5763H123.129C121.193 75.5763 119.59 74.0356 119.59 72.141V39.3496H126.648C134.601 39.3496 141.305 45.6997 141.305 53.5904H142.013V24.5675H141.305C141.305 32.2917 134.767 38.8291 126.648 38.8291H119.59V0.707877H133.372C142.908 0.707877 150.507 8.2655 150.507 17.3638H151.215V0.187379L95.0429 0.0208199ZM199.267 0.707877H203.515V0.0208199H171.181V0.707877H175.429C177.365 0.707877 178.968 2.24855 178.968 4.14316V72.141C178.968 74.0356 177.386 75.5763 175.429 75.5763H171.181V76.2633H203.515V75.5763H199.267C197.331 75.5763 195.728 74.0356 195.728 72.141V3.9766C195.728 2.26937 197.31 0.707877 199.267 0.707877ZM323.791 5.51728C319.731 2.08199 314.256 0.0208199 308.426 0.0208199H266.745V0.707877H270.992C272.928 0.707877 274.531 2.24855 274.531 4.14316V72.141C274.531 74.0356 272.949 75.5763 270.992 75.5763H266.745V76.2633H299.078V75.5763H294.831C292.895 75.5763 291.291 74.0356 291.291 72.141V42.0979H308.426C320.96 42.0979 330.683 33.6866 330.683 21.153C330.495 14.803 328.039 9.47306 323.791 5.51728ZM291.125 0.707877H298.183C305.595 0.707877 313.194 11.3469 313.194 20.9656C313.194 30.5844 305.595 41.2234 298.183 41.2234H291.125V0.707877ZM413.358 75.4097C409.653 75.4097 406.113 73.182 404.697 69.7467L376.965 0.0208199H369.199L341.113 70.4129C339.885 73.3277 337.054 75.2223 333.702 75.2223H331.765V75.9094H347.318V75.2223H342.55C341.134 75.2223 340.26 73.8482 340.78 72.6407L349.795 50.3217H378.756L387.771 72.6407C388.312 73.8482 387.25 75.2223 386.001 75.2223H381.587V75.9094H414.441V75.2223H413.379V75.3889L413.358 75.4097ZM378.381 49.822H349.754L364.057 14.1159L378.36 49.822H378.381ZM474.132 40.8903C483.501 38.3086 489.684 31.6254 489.684 20.9656C489.663 8.43206 480.128 0.0208199 467.407 0.0208199H425.725V0.707877H429.973C431.909 0.707877 433.512 2.24855 433.512 4.14316V72.141C433.512 74.0356 431.93 75.5763 429.973 75.5763H425.725V76.2633H458.059V75.5763H453.812C451.875 75.5763 450.272 74.0356 450.272 72.141V42.0979H453.978C473.403 42.0979 473.049 41.0569 474.111 40.8903H474.132ZM450.272 0.707877H457.33C464.742 0.707877 472.341 11.3469 472.341 20.9656C472.341 30.5844 464.742 41.2234 457.33 41.2234H450.272V0.707877ZM582.583 70.4129L546.543 28.6898L571.798 5.49646C575.171 2.39429 579.585 0.687057 584.165 0.687057V0H568.259V0.687057H572.152C573.568 0.687057 574.276 2.22773 573.214 3.26873L535.238 38.1213V3.9766C535.238 2.08199 536.821 0.541318 538.778 0.541318H543.025V0.0208199H510.692V0.707877H514.939C516.875 0.707877 518.478 2.24855 518.478 4.14316V72.141C518.478 74.0356 516.896 75.5763 514.939 75.5763H510.692V76.2633H543.025V75.5763H538.778C536.841 75.5763 535.238 74.0356 535.238 72.141V41.4108L561.909 72.4949C562.97 73.7025 562.075 75.4097 560.493 75.4097H557.849V76.0968H593.347V75.4097C589.099 75.4097 585.039 73.5151 582.562 70.4337L582.583 70.4129ZM115.78 141.679H62.4597V142.346H115.78V141.679ZM530.908 141.679H477.588V142.346H530.908V141.679Z" fill="#BF9076"/>
<path d="M154.934 149.924V132.435H167.725V134.009H156.757V139.731H162.479C164.544 139.731 166.11 140.155 167.176 141.005C168.258 141.838 168.8 143.07 168.8 144.702C168.8 146.385 168.217 147.676 167.051 148.575C165.902 149.474 164.244 149.924 162.079 149.924H154.934ZM156.757 148.45H162.054C163.67 148.45 164.886 148.142 165.702 147.526C166.534 146.893 166.951 145.977 166.951 144.777C166.951 142.396 165.319 141.205 162.054 141.205H156.757V148.45Z" fill="#BF9076"/>
<path d="M178.058 149.924V132.435H179.882V146.926L191.075 132.435H192.749V149.924H190.925V135.458L179.732 149.924H178.058Z" fill="#BF9076"/>
<path d="M201.574 147.825L202.248 146.501C203.014 147.168 203.872 147.667 204.822 148C205.788 148.317 206.754 148.483 207.72 148.5C208.686 148.5 209.568 148.358 210.368 148.075C211.184 147.792 211.842 147.376 212.342 146.826C212.841 146.26 213.091 145.577 213.091 144.777C213.091 143.761 212.683 142.979 211.867 142.429C211.068 141.879 209.952 141.604 208.519 141.604H204.772V140.105H208.419C209.652 140.105 210.609 139.847 211.292 139.331C211.992 138.798 212.342 138.065 212.342 137.132C212.342 136.466 212.142 135.9 211.742 135.433C211.359 134.95 210.826 134.584 210.143 134.334C209.477 134.068 208.727 133.926 207.895 133.909C207.062 133.876 206.196 133.984 205.296 134.234C204.413 134.467 203.556 134.842 202.723 135.359L202.123 133.834C203.156 133.218 204.23 132.793 205.346 132.56C206.462 132.31 207.545 132.227 208.594 132.31C209.643 132.394 210.584 132.635 211.417 133.035C212.267 133.435 212.941 133.959 213.441 134.609C213.941 135.259 214.19 136.033 214.19 136.932C214.19 137.765 213.974 138.498 213.541 139.131C213.125 139.764 212.533 140.255 211.767 140.605C211.018 140.938 210.126 141.105 209.094 141.105L209.194 140.555C210.36 140.555 211.367 140.738 212.217 141.105C213.083 141.471 213.749 141.996 214.215 142.679C214.699 143.345 214.94 144.128 214.94 145.027C214.94 145.877 214.723 146.635 214.29 147.301C213.874 147.95 213.291 148.5 212.542 148.95C211.809 149.383 210.984 149.699 210.068 149.899C209.152 150.082 208.194 150.132 207.195 150.049C206.196 149.966 205.213 149.749 204.247 149.399C203.281 149.033 202.39 148.508 201.574 147.825Z" fill="#BF9076"/>
<path d="M237.319 132.435H239.143V149.924H237.319V132.435ZM226.376 149.924H224.527V132.435H226.376V149.924ZM237.494 141.854H226.176V140.23H237.494V141.854Z" fill="#BF9076"/>
<path d="M251.692 140.255H260.936V141.829H251.692V140.255ZM251.892 148.325H262.41V149.924H250.043V132.435H262.035V134.034H251.892V148.325Z" fill="#BF9076"/>
<path d="M279.105 150.074C277.789 150.074 276.573 149.857 275.457 149.424C274.341 148.975 273.375 148.35 272.559 147.551C271.743 146.751 271.102 145.81 270.636 144.727C270.186 143.645 269.961 142.462 269.961 141.18C269.961 139.897 270.186 138.715 270.636 137.632C271.102 136.549 271.743 135.608 272.559 134.809C273.392 134.009 274.366 133.393 275.482 132.96C276.598 132.51 277.814 132.285 279.13 132.285C280.396 132.285 281.587 132.502 282.703 132.935C283.819 133.351 284.76 133.984 285.526 134.834L284.352 136.008C283.635 135.275 282.844 134.751 281.978 134.434C281.112 134.101 280.179 133.934 279.18 133.934C278.131 133.934 277.156 134.118 276.257 134.484C275.357 134.834 274.575 135.342 273.908 136.008C273.242 136.658 272.718 137.424 272.334 138.307C271.968 139.173 271.785 140.13 271.785 141.18C271.785 142.229 271.968 143.195 272.334 144.078C272.718 144.944 273.242 145.71 273.908 146.376C274.575 147.026 275.357 147.534 276.257 147.9C277.156 148.25 278.131 148.425 279.18 148.425C280.179 148.425 281.112 148.259 281.978 147.925C282.844 147.592 283.635 147.059 284.352 146.326L285.526 147.501C284.76 148.35 283.819 148.991 282.703 149.424C281.587 149.857 280.388 150.074 279.105 150.074Z" fill="#BF9076"/>
<path d="M304.427 143.928V142.379H310.973V143.928H304.427Z" fill="#BF9076"/>
<path d="M331.948 149.924V132.435H333.772V148.325H344.34V132.435H346.164V149.924H331.948ZM347.214 154.021V149.424L347.688 149.924H344.34V148.325H348.937V154.021H347.214Z" fill="#BF9076"/>
<path d="M359.259 140.255H368.503V141.829H359.259V140.255ZM359.459 148.325H369.978V149.924H357.611V132.435H369.603V134.034H359.459V148.325Z" fill="#BF9076"/>
<path d="M391.868 132.435H393.692V149.924H391.868V132.435ZM380.925 149.924H379.076V132.435H380.925V149.924ZM392.043 141.854H380.725V140.23H392.043V141.854Z" fill="#BF9076"/>
<path d="M408.065 149.924V133.535L408.564 134.034H401.919V132.435H416.035V134.034H409.414L409.889 133.535V149.924H408.065Z" fill="#BF9076"/>
<path d="M424.276 149.924V132.435H430.822C432.305 132.435 433.579 132.677 434.645 133.16C435.711 133.626 436.527 134.309 437.093 135.209C437.676 136.091 437.968 137.166 437.968 138.432C437.968 139.664 437.676 140.73 437.093 141.629C436.527 142.512 435.711 143.195 434.645 143.678C433.579 144.161 432.305 144.403 430.822 144.403H425.301L426.125 143.528V149.924H424.276ZM426.125 143.678L425.301 142.779H430.772C432.521 142.779 433.845 142.404 434.745 141.654C435.661 140.888 436.119 139.814 436.119 138.432C436.119 137.032 435.661 135.95 434.745 135.184C433.845 134.417 432.521 134.034 430.772 134.034H425.301L426.125 133.16V143.678Z" fill="#BF9076"/>
</svg>
